<mxfile host="app.diagrams.net" agent="Mozilla/5.0 (X11; Linux x86_64; rv:130.0) Gecko/20100101 Firefox/130.0" version="24.7.17">
  <diagram name="Page-1" id="k-bV-gzvAnapCVn6ivjx">
    <mxGraphModel dx="1728" dy="941" grid="1" gridSize="10" guides="1" tooltips="1" connect="1" arrows="1" fold="1" page="1" pageScale="1" pageWidth="1600" pageHeight="1200" math="0" shadow="0">
      <root>
        <mxCell id="0" />
        <mxCell id="1" parent="0" />
        <mxCell id="Uc8yP-_bymSAi7B8y7lO-2" value="q6" style="ellipse;shape=doubleEllipse;whiteSpace=wrap;html=1;aspect=fixed;" vertex="1" parent="1">
          <mxGeometry x="1110" y="450" width="80" height="80" as="geometry" />
        </mxCell>
        <mxCell id="Uc8yP-_bymSAi7B8y7lO-3" value="q0" style="ellipse;whiteSpace=wrap;html=1;aspect=fixed;" vertex="1" parent="1">
          <mxGeometry x="110" y="157" width="80" height="80" as="geometry" />
        </mxCell>
        <mxCell id="Uc8yP-_bymSAi7B8y7lO-6" value="q3" style="ellipse;whiteSpace=wrap;html=1;aspect=fixed;" vertex="1" parent="1">
          <mxGeometry x="710" y="157" width="80" height="80" as="geometry" />
        </mxCell>
        <mxCell id="Uc8yP-_bymSAi7B8y7lO-8" value="q4" style="ellipse;whiteSpace=wrap;html=1;aspect=fixed;" vertex="1" parent="1">
          <mxGeometry x="910" y="157" width="80" height="80" as="geometry" />
        </mxCell>
        <mxCell id="Uc8yP-_bymSAi7B8y7lO-10" value="q2" style="ellipse;whiteSpace=wrap;html=1;aspect=fixed;" vertex="1" parent="1">
          <mxGeometry x="510" y="157" width="80" height="80" as="geometry" />
        </mxCell>
        <mxCell id="Uc8yP-_bymSAi7B8y7lO-11" value="q1" style="ellipse;whiteSpace=wrap;html=1;aspect=fixed;" vertex="1" parent="1">
          <mxGeometry x="310" y="157" width="80" height="80" as="geometry" />
        </mxCell>
        <mxCell id="Uc8yP-_bymSAi7B8y7lO-12" value="&lt;font style=&quot;font-size: 24px;&quot;&gt;/&lt;/font&gt;" style="whiteSpace=wrap;html=1;fillColor=none;fontColor=#333333;strokeColor=none;" vertex="1" parent="1">
          <mxGeometry x="190" y="197" width="120" height="60" as="geometry" />
        </mxCell>
        <mxCell id="Uc8yP-_bymSAi7B8y7lO-13" value="" style="endArrow=classic;html=1;rounded=0;exitX=1;exitY=0.5;exitDx=0;exitDy=0;entryX=0;entryY=0.5;entryDx=0;entryDy=0;" edge="1" parent="1" source="Uc8yP-_bymSAi7B8y7lO-3" target="Uc8yP-_bymSAi7B8y7lO-11">
          <mxGeometry width="50" height="50" relative="1" as="geometry">
            <mxPoint x="820" y="517" as="sourcePoint" />
            <mxPoint x="870" y="467" as="targetPoint" />
          </mxGeometry>
        </mxCell>
        <mxCell id="Uc8yP-_bymSAi7B8y7lO-14" value="" style="endArrow=classic;html=1;rounded=0;exitX=1;exitY=0.5;exitDx=0;exitDy=0;entryX=0;entryY=0.5;entryDx=0;entryDy=0;" edge="1" parent="1" source="Uc8yP-_bymSAi7B8y7lO-11" target="Uc8yP-_bymSAi7B8y7lO-10">
          <mxGeometry width="50" height="50" relative="1" as="geometry">
            <mxPoint x="820" y="517" as="sourcePoint" />
            <mxPoint x="870" y="467" as="targetPoint" />
          </mxGeometry>
        </mxCell>
        <mxCell id="Uc8yP-_bymSAi7B8y7lO-15" value="&lt;font style=&quot;font-size: 24px;&quot;&gt;*&lt;/font&gt;" style="whiteSpace=wrap;html=1;fillColor=none;fontColor=#333333;strokeColor=none;" vertex="1" parent="1">
          <mxGeometry x="400" y="197" width="120" height="60" as="geometry" />
        </mxCell>
        <mxCell id="Uc8yP-_bymSAi7B8y7lO-16" value="" style="endArrow=classic;html=1;rounded=0;exitX=1;exitY=0.5;exitDx=0;exitDy=0;entryX=0;entryY=0.5;entryDx=0;entryDy=0;" edge="1" parent="1" source="Uc8yP-_bymSAi7B8y7lO-10" target="Uc8yP-_bymSAi7B8y7lO-6">
          <mxGeometry width="50" height="50" relative="1" as="geometry">
            <mxPoint x="820" y="517" as="sourcePoint" />
            <mxPoint x="870" y="467" as="targetPoint" />
          </mxGeometry>
        </mxCell>
        <mxCell id="Uc8yP-_bymSAi7B8y7lO-18" value="" style="endArrow=classic;html=1;rounded=0;exitX=1;exitY=0.5;exitDx=0;exitDy=0;entryX=0;entryY=0.5;entryDx=0;entryDy=0;" edge="1" parent="1" source="Uc8yP-_bymSAi7B8y7lO-6" target="Uc8yP-_bymSAi7B8y7lO-8">
          <mxGeometry width="50" height="50" relative="1" as="geometry">
            <mxPoint x="820" y="517" as="sourcePoint" />
            <mxPoint x="870" y="467" as="targetPoint" />
          </mxGeometry>
        </mxCell>
        <mxCell id="Uc8yP-_bymSAi7B8y7lO-20" value="q5" style="ellipse;whiteSpace=wrap;html=1;aspect=fixed;" vertex="1" parent="1">
          <mxGeometry x="1110" y="157" width="80" height="80" as="geometry" />
        </mxCell>
        <mxCell id="Uc8yP-_bymSAi7B8y7lO-21" value="" style="endArrow=classic;html=1;rounded=0;exitX=1;exitY=0.5;exitDx=0;exitDy=0;entryX=0;entryY=0.5;entryDx=0;entryDy=0;" edge="1" parent="1" source="Uc8yP-_bymSAi7B8y7lO-8" target="Uc8yP-_bymSAi7B8y7lO-20">
          <mxGeometry width="50" height="50" relative="1" as="geometry">
            <mxPoint x="820" y="517" as="sourcePoint" />
            <mxPoint x="870" y="467" as="targetPoint" />
          </mxGeometry>
        </mxCell>
        <mxCell id="Uc8yP-_bymSAi7B8y7lO-22" value="&lt;font style=&quot;font-size: 24px;&quot;&gt;*&lt;/font&gt;" style="whiteSpace=wrap;html=1;fillColor=none;fontColor=#333333;strokeColor=none;" vertex="1" parent="1">
          <mxGeometry x="790" y="197" width="120" height="60" as="geometry" />
        </mxCell>
        <mxCell id="Uc8yP-_bymSAi7B8y7lO-23" value="&lt;font style=&quot;font-size: 24px;&quot;&gt;/&lt;/font&gt;" style="whiteSpace=wrap;html=1;fillColor=none;fontColor=#333333;strokeColor=none;" vertex="1" parent="1">
          <mxGeometry x="990" y="197" width="120" height="60" as="geometry" />
        </mxCell>
        <mxCell id="Uc8yP-_bymSAi7B8y7lO-25" value="" style="curved=1;endArrow=classic;html=1;rounded=0;exitX=1;exitY=1;exitDx=0;exitDy=0;entryX=0.5;entryY=1;entryDx=0;entryDy=0;" edge="1" parent="1" source="Uc8yP-_bymSAi7B8y7lO-6" target="Uc8yP-_bymSAi7B8y7lO-6">
          <mxGeometry width="50" height="50" relative="1" as="geometry">
            <mxPoint x="820" y="517" as="sourcePoint" />
            <mxPoint x="680" y="267" as="targetPoint" />
            <Array as="points">
              <mxPoint x="820" y="270" />
              <mxPoint x="770" y="300" />
              <mxPoint x="750" y="280" />
            </Array>
          </mxGeometry>
        </mxCell>
        <mxCell id="Uc8yP-_bymSAi7B8y7lO-27" value="" style="curved=1;endArrow=classic;html=1;rounded=0;exitX=0.5;exitY=0;exitDx=0;exitDy=0;entryX=0.5;entryY=0;entryDx=0;entryDy=0;" edge="1" parent="1" source="Uc8yP-_bymSAi7B8y7lO-10" target="Uc8yP-_bymSAi7B8y7lO-8">
          <mxGeometry width="50" height="50" relative="1" as="geometry">
            <mxPoint x="820" y="517" as="sourcePoint" />
            <mxPoint x="870" y="467" as="targetPoint" />
            <Array as="points">
              <mxPoint x="740" y="87" />
            </Array>
          </mxGeometry>
        </mxCell>
        <mxCell id="Uc8yP-_bymSAi7B8y7lO-28" value="&lt;font style=&quot;font-size: 24px;&quot;&gt;not *&lt;br&gt;&lt;/font&gt;" style="whiteSpace=wrap;html=1;fillColor=none;fontColor=#333333;strokeColor=none;" vertex="1" parent="1">
          <mxGeometry x="710" y="290" width="140" height="60" as="geometry" />
        </mxCell>
        <mxCell id="Uc8yP-_bymSAi7B8y7lO-29" value="&lt;font style=&quot;font-size: 24px;&quot;&gt;empty&lt;/font&gt;" style="whiteSpace=wrap;html=1;fillColor=none;fontColor=#333333;strokeColor=none;" vertex="1" parent="1">
          <mxGeometry x="690" y="67" width="120" height="60" as="geometry" />
        </mxCell>
        <mxCell id="Uc8yP-_bymSAi7B8y7lO-31" value="&lt;font style=&quot;font-size: 24px;&quot;&gt;not *&lt;br&gt;&lt;/font&gt;" style="whiteSpace=wrap;html=1;fillColor=none;fontColor=#333333;strokeColor=none;" vertex="1" parent="1">
          <mxGeometry x="570" y="197" width="140" height="60" as="geometry" />
        </mxCell>
        <mxCell id="Uc8yP-_bymSAi7B8y7lO-32" value="" style="endArrow=classic;html=1;rounded=0;exitX=0.5;exitY=1;exitDx=0;exitDy=0;entryX=0.5;entryY=0;entryDx=0;entryDy=0;" edge="1" parent="1" source="Uc8yP-_bymSAi7B8y7lO-20" target="Uc8yP-_bymSAi7B8y7lO-2">
          <mxGeometry width="50" height="50" relative="1" as="geometry">
            <mxPoint x="820" y="460" as="sourcePoint" />
            <mxPoint x="870" y="410" as="targetPoint" />
          </mxGeometry>
        </mxCell>
        <mxCell id="Uc8yP-_bymSAi7B8y7lO-33" value="&lt;font style=&quot;font-size: 24px;&quot;&gt;EOL&lt;/font&gt;" style="whiteSpace=wrap;html=1;fillColor=none;fontColor=#333333;strokeColor=none;" vertex="1" parent="1">
          <mxGeometry x="1140" y="320" width="120" height="60" as="geometry" />
        </mxCell>
        <mxCell id="Uc8yP-_bymSAi7B8y7lO-34" value="q7" style="ellipse;shape=doubleEllipse;whiteSpace=wrap;html=1;aspect=fixed;" vertex="1" parent="1">
          <mxGeometry x="500" y="500" width="80" height="80" as="geometry" />
        </mxCell>
        <mxCell id="Uc8yP-_bymSAi7B8y7lO-35" value="" style="endArrow=classic;html=1;rounded=0;exitX=1;exitY=1;exitDx=0;exitDy=0;entryX=0;entryY=0.5;entryDx=0;entryDy=0;" edge="1" parent="1" source="Uc8yP-_bymSAi7B8y7lO-3" target="Uc8yP-_bymSAi7B8y7lO-34">
          <mxGeometry width="50" height="50" relative="1" as="geometry">
            <mxPoint x="820" y="460" as="sourcePoint" />
            <mxPoint x="870" y="410" as="targetPoint" />
          </mxGeometry>
        </mxCell>
        <mxCell id="Uc8yP-_bymSAi7B8y7lO-36" value="" style="endArrow=classic;html=1;rounded=0;exitX=0.5;exitY=1;exitDx=0;exitDy=0;entryX=0;entryY=0;entryDx=0;entryDy=0;" edge="1" parent="1" source="Uc8yP-_bymSAi7B8y7lO-11" target="Uc8yP-_bymSAi7B8y7lO-34">
          <mxGeometry width="50" height="50" relative="1" as="geometry">
            <mxPoint x="820" y="460" as="sourcePoint" />
            <mxPoint x="870" y="410" as="targetPoint" />
          </mxGeometry>
        </mxCell>
        <mxCell id="Uc8yP-_bymSAi7B8y7lO-37" value="" style="endArrow=classic;html=1;rounded=0;exitX=0;exitY=1;exitDx=0;exitDy=0;entryX=1;entryY=0;entryDx=0;entryDy=0;" edge="1" parent="1" source="Uc8yP-_bymSAi7B8y7lO-6" target="Uc8yP-_bymSAi7B8y7lO-34">
          <mxGeometry width="50" height="50" relative="1" as="geometry">
            <mxPoint x="700" y="320" as="sourcePoint" />
            <mxPoint x="870" y="410" as="targetPoint" />
          </mxGeometry>
        </mxCell>
        <mxCell id="Uc8yP-_bymSAi7B8y7lO-38" value="" style="endArrow=classic;html=1;rounded=0;exitX=0.5;exitY=1;exitDx=0;exitDy=0;entryX=0.5;entryY=0;entryDx=0;entryDy=0;" edge="1" parent="1" source="Uc8yP-_bymSAi7B8y7lO-10" target="Uc8yP-_bymSAi7B8y7lO-34">
          <mxGeometry width="50" height="50" relative="1" as="geometry">
            <mxPoint x="820" y="460" as="sourcePoint" />
            <mxPoint x="870" y="410" as="targetPoint" />
          </mxGeometry>
        </mxCell>
        <mxCell id="Uc8yP-_bymSAi7B8y7lO-39" value="&lt;font style=&quot;font-size: 24px;&quot;&gt;EOL or not *&lt;br&gt;&lt;/font&gt;" style="whiteSpace=wrap;html=1;fillColor=none;fontColor=#333333;strokeColor=none;rotation=60;" vertex="1" parent="1">
          <mxGeometry x="300" y="300" width="140" height="60" as="geometry" />
        </mxCell>
        <mxCell id="Uc8yP-_bymSAi7B8y7lO-40" value="" style="endArrow=classic;html=1;rounded=0;exitX=0;exitY=1;exitDx=0;exitDy=0;entryX=1;entryY=0.5;entryDx=0;entryDy=0;" edge="1" parent="1" source="Uc8yP-_bymSAi7B8y7lO-8" target="Uc8yP-_bymSAi7B8y7lO-34">
          <mxGeometry width="50" height="50" relative="1" as="geometry">
            <mxPoint x="820" y="460" as="sourcePoint" />
            <mxPoint x="870" y="410" as="targetPoint" />
          </mxGeometry>
        </mxCell>
        <mxCell id="Uc8yP-_bymSAi7B8y7lO-42" value="&lt;font style=&quot;font-size: 24px;&quot;&gt;EOL or not /&lt;br&gt;&lt;/font&gt;" style="whiteSpace=wrap;html=1;fillColor=none;fontColor=#333333;strokeColor=none;rotation=45;" vertex="1" parent="1">
          <mxGeometry x="190" y="330" width="140" height="60" as="geometry" />
        </mxCell>
        <mxCell id="Uc8yP-_bymSAi7B8y7lO-43" value="&lt;font style=&quot;font-size: 24px;&quot;&gt;EOL&lt;/font&gt;" style="whiteSpace=wrap;html=1;fillColor=none;fontColor=#333333;strokeColor=none;" vertex="1" parent="1">
          <mxGeometry x="460" y="310" width="120" height="60" as="geometry" />
        </mxCell>
        <mxCell id="Uc8yP-_bymSAi7B8y7lO-44" value="&lt;font style=&quot;font-size: 24px;&quot;&gt;EOL or not /&lt;br&gt;&lt;/font&gt;" style="whiteSpace=wrap;html=1;fillColor=none;fontColor=#333333;strokeColor=none;rotation=-45;" vertex="1" parent="1">
          <mxGeometry x="740" y="350" width="140" height="60" as="geometry" />
        </mxCell>
        <mxCell id="Uc8yP-_bymSAi7B8y7lO-45" value="&lt;font style=&quot;font-size: 24px;&quot;&gt;EOL&lt;br&gt;&lt;/font&gt;" style="whiteSpace=wrap;html=1;fillColor=none;fontColor=#333333;strokeColor=none;rotation=-61;" vertex="1" parent="1">
          <mxGeometry x="560" y="310" width="140" height="60" as="geometry" />
        </mxCell>
        <mxCell id="Uc8yP-_bymSAi7B8y7lO-46" value="&lt;font style=&quot;font-size: 24px;&quot;&gt;return SLASH_CODE&lt;br&gt;&lt;/font&gt;" style="whiteSpace=wrap;html=1;" vertex="1" parent="1">
          <mxGeometry x="405" y="630" width="270" height="60" as="geometry" />
        </mxCell>
        <mxCell id="Uc8yP-_bymSAi7B8y7lO-47" value="&lt;font style=&quot;font-size: 24px;&quot;&gt;return COMMENT&lt;br&gt;&lt;/font&gt;" style="whiteSpace=wrap;html=1;" vertex="1" parent="1">
          <mxGeometry x="1015" y="630" width="270" height="60" as="geometry" />
        </mxCell>
        <mxCell id="Uc8yP-_bymSAi7B8y7lO-48" value="" style="endArrow=classic;html=1;rounded=0;exitX=0.5;exitY=1;exitDx=0;exitDy=0;entryX=0.5;entryY=0;entryDx=0;entryDy=0;" edge="1" parent="1" source="Uc8yP-_bymSAi7B8y7lO-2" target="Uc8yP-_bymSAi7B8y7lO-47">
          <mxGeometry width="50" height="50" relative="1" as="geometry">
            <mxPoint x="820" y="460" as="sourcePoint" />
            <mxPoint x="870" y="410" as="targetPoint" />
          </mxGeometry>
        </mxCell>
        <mxCell id="Uc8yP-_bymSAi7B8y7lO-49" value="" style="endArrow=classic;html=1;rounded=0;exitX=0.5;exitY=1;exitDx=0;exitDy=0;entryX=0.5;entryY=0;entryDx=0;entryDy=0;" edge="1" parent="1" source="Uc8yP-_bymSAi7B8y7lO-34" target="Uc8yP-_bymSAi7B8y7lO-46">
          <mxGeometry width="50" height="50" relative="1" as="geometry">
            <mxPoint x="820" y="460" as="sourcePoint" />
            <mxPoint x="870" y="410" as="targetPoint" />
          </mxGeometry>
        </mxCell>
      </root>
    </mxGraphModel>
  </diagram>
</mxfile>
